<svg width="128" height="128" viewBox="0 0 128 128" xmlns="http://www.w3.org/2000/svg">
  <defs>
    <linearGradient id="grad1" x1="0%" y1="0%" x2="100%" y2="100%">
      <stop offset="0%" style="stop-color:#667eea;stop-opacity:1" />
      <stop offset="100%" style="stop-color:#764ba2;stop-opacity:1" />
    </linearGradient>
  </defs>
  
  <!-- Background circle -->
  <circle cx="64" cy="64" r="60" fill="url(#grad1)" stroke="#fff" stroke-width="4"/>
  
  <!-- Clock face -->
  <circle cx="64" cy="64" r="45" fill="#fff" stroke="#667eea" stroke-width="2"/>
  
  <!-- Hour markers -->
  <g stroke="#667eea" stroke-width="2">
    <line x1="64" y1="24" x2="64" y2="32" />
    <line x1="64" y1="96" x2="64" y2="104" />
    <line x1="24" y1="64" x2="32" y2="64" />
    <line x1="96" y1="64" x2="104" y2="64" />
  </g>
  
  <!-- Clock hands -->
  <g stroke="#667eea" stroke-width="3" stroke-linecap="round">
    <!-- Hour hand -->
    <line x1="64" y1="64" x2="64" y2="45" />
    <!-- Minute hand -->
    <line x1="64" y1="64" x2="78" y2="50" />
  </g>
  
  <!-- Center dot -->
  <circle cx="64" cy="64" r="4" fill="#667eea"/>
  
  <!-- Alarm bells -->
  <g fill="#ff6b6b">
    <path d="M45 35 Q40 30 35 35 Q35 40 40 42 Q45 40 45 35 Z"/>
    <path d="M83 35 Q88 30 93 35 Q93 40 88 42 Q83 40 83 35 Z"/>
  </g>
  
  <!-- Bell motion lines -->
  <g stroke="#ff6b6b" stroke-width="2" stroke-linecap="round">
    <line x1="30" y1="32" x2="28" y2="30" />
    <line x1="32" y1="28" x2="30" y2="26" />
    <line x1="96" y1="32" x2="98" y2="30" />
    <line x1="94" y1="28" x2="96" y2="26" />
  </g>
</svg>
